<svg xmlns="http://www.w3.org/2000/svg" viewBox="5000 668 37 50">
  <defs>
    <style>
      .cls-1 {
        fill: #444;
      }

      .cls-2 {
        fill: #fff;
      }
    </style>
  </defs>
  <g id="Group_126" data-name="Group 126" transform="translate(4308)">
    <path id="Rectangle_44" data-name="Rectangle 44" class="cls-1" d="M2,0H37a0,0,0,0,1,0,0V50a0,0,0,0,1,0,0H2a2,2,0,0,1-2-2V2A2,2,0,0,1,2,0Z" transform="translate(692 668)"/>
    <g id="Group_28" data-name="Group 28" transform="translate(701 684)">
      <circle id="Ellipse_8" data-name="Ellipse 8" class="cls-1" cx="10" cy="10" r="10" transform="translate(0 0)"/>
      <path id="Path_36" data-name="Path 36" class="cls-2" d="M21.216,12.6H15.277A1.88,1.88,0,0,0,13.4,14.477v5.939a1.88,1.88,0,0,0,1.877,1.877h5.939a1.88,1.88,0,0,0,1.877-1.877V14.439A1.873,1.873,0,0,0,21.216,12.6Zm.536,1.111h.23v1.648H20.335V13.711Zm-4.866,2.72a1.721,1.721,0,0,1,1.379-.728,1.624,1.624,0,0,1,1.379.728,1.728,1.728,0,1,1-3.142,1A2.007,2.007,0,0,1,16.887,16.431Zm5.287,3.985a.932.932,0,0,1-.92.92H15.277a.932.932,0,0,1-.92-.92V16.431h1.456a2.878,2.878,0,0,0-.192,1,2.644,2.644,0,1,0,5.287,0,2.878,2.878,0,0,0-.192-1h1.456Z" transform="translate(-8.266 -7.772)"/>
    </g>
  </g>
</svg>
