<svg xmlns="http://www.w3.org/2000/svg" viewBox="4754 668 37 50">
  <defs>
    <style>
      .cls-1 {
        fill: #1687b1;
      }

      .cls-2 {
        fill: #fff;
      }
    </style>
  </defs>
  <g id="Group_127" data-name="Group 127" transform="translate(4308)">
    <path id="Rectangle_45" data-name="Rectangle 45" class="cls-1" d="M2,0H37a0,0,0,0,1,0,0V50a0,0,0,0,1,0,0H2a2,2,0,0,1-2-2V2A2,2,0,0,1,2,0Z" transform="translate(446 668)"/>
    <g id="Group_27" data-name="Group 27" transform="translate(455 684)">
      <circle id="Ellipse_7" data-name="Ellipse 7" class="cls-1" cx="10" cy="10" r="10" transform="translate(0 0)"/>
      <path id="Path_35" data-name="Path 35" class="cls-2" d="M15.384,22.58H13.468V16.45h1.916Zm-1.034-6.935h0A1.048,1.048,0,0,1,13.2,14.573,1.08,1.08,0,0,1,14.388,13.5a1.068,1.068,0,0,1,1.149,1.073A1.08,1.08,0,0,1,14.349,15.646Zm8.7,6.935H20.863V19.4c0-.843-.345-1.418-1.073-1.418a1.09,1.09,0,0,0-1.034.766,1.873,1.873,0,0,0-.038.5V22.58H16.572s.038-5.632,0-6.13h2.146v.958a1.945,1.945,0,0,1,1.916-1.034c1.379,0,2.452.881,2.452,2.8v3.41Z" transform="translate(-8.143 -8.328)"/>
    </g>
  </g>
</svg>
