<svg xmlns="http://www.w3.org/2000/svg" viewBox="5000 602 37 50">
  <defs>
    <style>
      .cls-1 {
        fill: #1cb8ec;
      }

      .cls-2 {
        fill: #fff;
      }
    </style>
  </defs>
  <g id="Group_125" data-name="Group 125" transform="translate(4308)">
    <path id="Rectangle_41" data-name="Rectangle 41" class="cls-1" d="M2,0H37a0,0,0,0,1,0,0V50a0,0,0,0,1,0,0H2a2,2,0,0,1-2-2V2A2,2,0,0,1,2,0Z" transform="translate(692 602)"/>
    <g id="Group_22" data-name="Group 22" transform="translate(701 618)">
      <circle id="Ellipse_4" data-name="Ellipse 4" class="cls-1" cx="10" cy="10" r="10" transform="translate(0 0)"/>
      <g id="Group_21" data-name="Group 21" transform="translate(4.559 5.326)">
        <g id="Group_20" data-name="Group 20">
          <path id="Path_32" data-name="Path 32" class="cls-2" d="M22.666,15.011a4.423,4.423,0,0,1-1.264.383,2.347,2.347,0,0,0,.958-1.3,4.386,4.386,0,0,1-1.379.575,2.1,2.1,0,0,0-1.609-.766,2.279,2.279,0,0,0-2.184,2.375,2.356,2.356,0,0,0,.038.536A6.065,6.065,0,0,1,12.7,14.36a2.489,2.489,0,0,0-.307,1.188,2.432,2.432,0,0,0,.958,1.954,1.9,1.9,0,0,1-1-.307v.038a2.292,2.292,0,0,0,1.762,2.3,2.957,2.957,0,0,1-.575.077,1.572,1.572,0,0,1-.421-.038,2.2,2.2,0,0,0,2.031,1.648,4.106,4.106,0,0,1-2.72,1,2.53,2.53,0,0,1-.536-.038,5.7,5.7,0,0,0,3.372,1.073c4.023,0,6.245-3.6,6.245-6.7v-.307A3.864,3.864,0,0,0,22.666,15.011Z" transform="translate(-11.9 -13.9)"/>
        </g>
      </g>
    </g>
  </g>
</svg>
